<?xml version="1.0" encoding="UTF-8"?>
<svg version="1.1" xmlns="http://www.w3.org/2000/svg" width="960" height="470">
<path d="M0 0 C38.72392054 -0.76973173 87.53614186 0.34491234 118.02978516 28.06640625 C118.78517578 28.741875 119.54056641 29.41734375 120.31884766 30.11328125 C126.01388023 35.48451598 130.14799697 41.29110666 134.02978516 48.06640625 C134.40748047 48.68644531 134.78517578 49.30648437 135.17431641 49.9453125 C152.85041133 81.42425445 141.23872408 123.07645973 136.02978516 156.06640625 C179.58978516 156.39640625 223.14978516 156.72640625 268.02978516 157.06640625 C268.35978516 154.09640625 268.68978516 151.12640625 269.02978516 148.06640625 C269.41483156 145.29873039 269.81133273 142.53604553 270.22900391 139.7734375 C270.34435989 139.00146027 270.45971588 138.22948303 270.5785675 137.43411255 C271.63299535 130.39393263 272.70341515 123.35611696 273.77658081 116.31877136 C274.5898428 110.9830645 275.38965247 105.64561008 276.17747498 100.30609131 C285.27592741 38.81341144 285.27592741 38.81341144 302.02978516 18.06640625 C302.95791016 16.70515625 302.95791016 16.70515625 303.90478516 15.31640625 C314.04644276 4.57818056 327.91631048 2.51139333 342.02978516 2.06640625 C350.01265613 1.9176623 357.99625259 1.92236127 365.98022461 1.93603516 C369.71879097 1.94140841 373.45723801 1.93605768 377.19580078 1.9296875 C379.60270208 1.93034813 382.00960331 1.93162898 384.41650391 1.93359375 C385.51886887 1.93156952 386.62123383 1.92954529 387.75700378 1.92745972 C401.94089285 1.96983383 414.19132757 2.43397296 424.98681641 12.65625 C433.33510657 22.50499767 436.41758889 35.39923371 436.02978516 48.06640625 C435.68255706 51.69002689 435.13576184 55.27470323 434.57666016 58.87109375 C434.40292877 60.01357574 434.22919739 61.15605774 434.05020142 62.3331604 C430.74060961 83.74036372 427.03727219 105.08729347 423.40478516 126.44140625 C422.98506496 128.91161906 422.56535682 131.38183393 422.1456604 133.85205078 C411.24428244 197.97886935 400.20392336 262.09622702 387.83676529 325.95941162 C387.41838081 328.12115899 387.00160809 330.28321209 386.58505249 332.4453125 C383.75149503 347.12199108 380.73517107 361.75502932 377.45653152 376.33871078 C377.12233694 377.82648926 376.7903376 379.31476307 376.46085739 380.80359268 C371.99231776 400.92306555 366.6039792 422.70524411 348.09228516 434.50390625 C335.97765491 441.1528661 323.32687017 441.24031433 309.83056641 441.3046875 C309.1039147 441.30876303 308.37726299 441.31283855 307.62859154 441.31703758 C303.78161287 441.3377976 299.9346688 441.35214203 296.08764648 441.36157227 C292.15193885 441.37261254 288.21680022 441.40701357 284.28129292 441.44674397 C281.22087177 441.47310943 278.16058228 441.48128158 275.1000576 441.48485374 C273.65102485 441.48966883 272.20199589 441.50113408 270.75307655 441.51989174 C259.56493614 441.65573035 247.02965082 441.09444542 238.52978516 432.87890625 C228.61911285 423.06461001 225.03091345 410.57756118 224.94775391 396.8984375 C224.969526 391.73973226 225.32820135 386.73714047 226.02978516 381.62890625 C226.15442139 380.71842529 226.27905762 379.80794434 226.4074707 378.86987305 C228.8937325 362.1294061 233.10986176 345.63634118 236.93603516 329.16259766 C237.48934297 326.77613749 238.03918869 324.3888714 238.58520508 322.00073242 C239.06076085 319.921997 239.5441361 317.84501898 240.03881836 315.77075195 C242.45165086 305.22090467 243.54665511 294.94269325 245.02978516 284.06640625 C201.13978516 284.06640625 157.24978516 284.06640625 112.02978516 284.06640625 C111.36978516 289.67640625 110.70978516 295.28640625 110.02978516 301.06640625 C109.42284223 305.09638772 108.79653263 309.10917459 108.11181641 313.125 C107.9338855 314.18582291 107.75595459 315.24664581 107.57263184 316.33961487 C107.00158961 319.72871581 106.422978 323.11644631 105.84228516 326.50390625 C105.64347748 327.66849365 105.4446698 328.83308105 105.23983765 330.03295898 C90.12529693 418.35229136 90.12529693 418.35229136 70.54541016 432.9140625 C55.11385404 442.66661427 37.65335414 442.44022391 20.02978516 442.06640625 C18.65934752 442.04122617 17.28890442 442.01634275 15.91845703 441.99169922 C12.08584112 441.92097954 8.25365613 441.83735002 4.42147827 441.7460022 C2.89013903 441.71010783 1.35874438 441.6764921 -0.17269897 441.64535522 C-34.02962891 440.93037224 -34.02962891 440.93037224 -46.09912109 429.18359375 C-53.95534121 420.29409207 -55.35028871 407.53948966 -54.97021484 396.06640625 C-54.73967234 393.35197446 -54.3651 390.67188559 -53.97412109 387.9765625 C-53.86999122 387.2583517 -53.76586134 386.5401409 -53.65857601 385.80016613 C-51.07010599 368.06134065 -48.24532937 350.37605124 -45.06005859 332.734375 C-44.87249496 331.69207985 -44.68493134 330.6497847 -44.49168396 329.57590485 C-41.09430361 310.74819613 -37.4463958 291.97184911 -33.72021484 273.20703125 C-33.51581319 272.17724753 -33.51581319 272.17724753 -33.30728221 271.12666011 C-30.77854526 258.38874769 -28.23940851 245.65290526 -25.68951559 232.91921109 C-19.70798839 203.04648164 -13.80439631 173.18311536 -8.81396484 143.125 C-8.63124023 142.02681694 -8.44851563 140.92863388 -8.26025391 139.79717255 C1.19360665 98.13897576 1.19360665 98.13897576 -2.21630859 57.33203125 C-3.271056 54.16232403 -3.81635371 51.41471768 -3.97021484 48.06640625 C2.4174402 36.40770424 14.84452741 27.67974305 26.02978516 21.06640625 C6.42170569 26.38385153 -9.06066515 41.43412049 -19.09130859 58.6328125 C-43.32090707 101.72846516 -47.22417724 157.18878419 -53.62207031 205.36279297 C-58.55103631 242.2682561 -64.78421797 278.87290022 -71.39827508 315.50769037 C-72.53422401 321.8051277 -73.65565434 328.10508758 -74.77377957 334.40571064 C-76.00874945 341.36279779 -77.25358328 348.31808633 -78.50278664 355.27263069 C-79.02375385 358.17388461 -79.54143629 361.07569312 -80.05618858 363.97805595 C-89.92337362 419.5347518 -89.92337362 419.5347518 -110.22021484 434.44140625 C-120.09703305 440.34303163 -130.4960808 441.67425428 -141.80224609 441.59765625 C-143.07766769 441.60148315 -144.35308929 441.60531006 -145.66716003 441.60925293 C-148.34760538 441.61195742 -151.02655835 441.60676907 -153.70678711 441.58789062 C-157.09236341 441.56516932 -160.47667782 441.57858927 -163.86221027 441.60164452 C-190.93943594 441.75853121 -190.93943594 441.75853121 -203.97021484 437.06640625 C-204.82381592 436.76379883 -205.67741699 436.46119141 -206.55688477 436.14941406 C-208.64938665 435.33387487 -210.64558143 434.43698905 -212.65771484 433.44140625 C-213.36065674 433.09932129 -214.06359863 432.75723633 -214.7878418 432.40478516 C-221.91274362 428.79988079 -228.00570746 424.34437776 -233.97021484 419.06640625 C-234.52773438 418.58526367 -235.08525391 418.10412109 -235.65966797 417.60839844 C-246.05981055 408.4921517 -253.07469159 397.83751525 -260.1640625 386.05322266 C-263.24601652 380.95662554 -266.42899076 375.92339885 -269.59521484 370.87890625 C-270.85874297 368.8544832 -272.12177177 366.82974841 -273.38427734 364.8046875 C-276.56186475 359.71395935 -279.76044537 354.63688808 -282.97021484 349.56640625 C-288.14712024 341.38731647 -293.27820779 333.18006603 -298.40380859 324.96875 C-302.24170503 318.82340662 -306.09534215 312.68849508 -309.97021484 306.56640625 C-314.49607685 299.41578959 -318.98909716 292.24514319 -323.47021484 285.06640625 C-328.1200718 277.61822178 -332.78082767 270.17727489 -337.47021484 262.75390625 C-337.95780273 261.98119385 -338.44539062 261.20848145 -338.94775391 260.41235352 C-341.03799602 257.10400727 -343.13553956 253.80144201 -345.26708984 250.51953125 C-345.91162109 249.524375 -346.55615234 248.52921875 -347.22021484 247.50390625 C-348.03232422 246.26447266 -348.03232422 246.26447266 -348.86083984 245 C-349.97021484 243.06640625 -349.97021484 243.06640625 -349.97021484 241.06640625 C-350.63021484 241.06640625 -351.29021484 241.06640625 -351.97021484 241.06640625 C-352.01110985 241.76600558 -352.05200485 242.46560492 -352.0941391 243.18640423 C-352.66705639 251.4205894 -354.03206965 259.34771227 -355.66748047 267.4309082 C-355.93793704 268.79322287 -356.20768942 270.15567751 -356.47678375 271.51826191 C-357.03173668 274.32537626 -357.58971747 277.13186241 -358.14993286 279.93793106 C-359.41220773 286.27362744 -360.62857546 292.6182046 -361.85107422 298.96166992 C-364.1942073 311.06968235 -366.55749525 323.1737073 -368.93091583 335.2758131 C-370.35229476 342.52569908 -371.76681132 349.77680469 -373.16601562 357.03100586 C-374.4054193 363.45661995 -375.65727947 369.87966212 -376.92388201 376.29997236 C-377.58799748 379.66848669 -378.24624423 383.03788405 -378.889328 386.41048241 C-379.60631704 390.15361975 -380.34528229 393.89180456 -381.08935547 397.62963867 C-381.29212601 398.71598602 -381.49489655 399.80233337 -381.70381165 400.92160034 C-384.2557554 413.46524462 -389.86087886 425.17809859 -400.42333984 432.84765625 C-409.49164915 438.52230379 -418.15731278 441.16618318 -428.88671875 441.22753906 C-429.55106934 441.23250397 -430.21541992 441.23746887 -430.89990234 441.24258423 C-433.08220487 441.25710121 -435.26443461 441.26399177 -437.44677734 441.26953125 C-438.19857647 441.27235863 -438.9503756 441.275186 -439.72495651 441.27809906 C-443.70694068 441.29305254 -447.688889 441.30230508 -451.67089844 441.30664062 C-455.75238334 441.31210636 -459.83353147 441.33610499 -463.91491127 441.36461258 C-467.08080961 441.38338346 -470.24662934 441.38845226 -473.41257858 441.3899765 C-474.91544807 441.39297326 -476.41831718 441.400899 -477.92113113 441.41416168 C-492.21298432 441.53124565 -504.05005543 440.13702667 -514.93896484 430.28515625 C-522.10080774 422.88053902 -524.27693145 414.89919712 -524.234375 404.73901367 C-524.23132166 403.94891246 -524.22826832 403.15881124 -524.22512245 402.34476757 C-524.09569103 394.11749339 -522.81860148 386.24802805 -521.30615234 378.1796875 C-521.00640241 376.51399402 -520.70807969 374.84804322 -520.41101074 373.18186951 C-519.75665116 369.52954647 -519.09232766 365.87922461 -518.42034912 362.23010254 C-517.30696623 356.18320567 -516.21589194 350.13239407 -515.12695312 344.08105469 C-513.65622292 335.91853333 -512.17884857 327.75725102 -510.69514275 319.59707832 C-506.50643895 296.55854116 -502.37520634 273.50972466 -498.24166781 250.46123773 C-497.42818965 245.92539931 -496.61462184 241.38957697 -495.80102539 236.85375977 C-495.6386757 235.94858262 -495.47632601 235.04340547 -495.30905664 234.11079872 C-493.00404987 221.26028325 -490.6923868 208.41098131 -488.37530029 195.56263864 C-486.92303619 187.50935649 -485.47180074 179.45588894 -484.02099609 171.40234375 C-483.86432724 170.53274151 -483.70765839 169.66313927 -483.546242 168.76718545 C-479.79783343 147.95794351 -476.08369445 127.14428047 -472.5014267 106.30569458 C-471.96430289 103.18460696 -471.42441028 100.06401297 -470.88336182 96.94360352 C-470.71452988 95.96952797 -470.54569794 94.99545242 -470.37174988 93.99185944 C-470.04580318 92.11138577 -469.71976657 90.23092768 -469.39363098 88.35048676 C-468.5063486 83.22218362 -467.63924245 78.09104183 -466.78949642 72.95639229 C-466.28480731 69.93363546 -465.76187456 66.91425152 -465.23369789 63.89551926 C-464.90116935 61.96084918 -464.59202988 60.02220061 -464.2844696 58.08340454 C-461.2275936 40.88748753 -450.01590917 24.38960782 -435.97021484 14.06640625 C-421.27285947 4.5391012 -406.33987565 1.91842531 -389.04833984 1.8984375 C-388.02649597 1.8951091 -387.0046521 1.8917807 -385.95184326 1.88835144 C-383.80041958 1.88331497 -381.64898817 1.88094209 -379.49755859 1.88110352 C-376.24351828 1.87892187 -372.98982015 1.86074398 -369.73583984 1.84179688 C-343.44434401 1.76883215 -324.8054081 6.99801439 -305.72021484 25.81640625 C-299.21486181 32.41338398 -293.8688308 39.19130991 -288.97021484 47.06640625 C-288.0431514 48.52167633 -287.11467307 49.97604567 -286.18505859 51.4296875 C-283.60926919 55.47212904 -281.06058094 59.5309919 -278.51855469 63.59472656 C-276.01411737 67.59266465 -273.49146739 71.57905998 -270.97021484 75.56640625 C-269.97012294 77.14968153 -268.97012304 78.73301494 -267.97021484 80.31640625 C-267.47521484 81.10015625 -266.98021484 81.88390625 -266.47021484 82.69140625 C-260.97021484 91.39973958 -255.47021484 100.10807292 -249.97021484 108.81640625 C-249.22807739 109.991427 -249.22807739 109.991427 -248.47094727 111.19018555 C-247.46843241 112.77754151 -246.4659913 114.36494404 -245.46362305 115.95239258 C-243.00269522 119.8495602 -240.54059773 123.74597726 -238.07568359 127.640625 C-232.55367785 136.36910635 -227.06188927 145.11565297 -221.59521484 153.87890625 C-209.9689752 172.59205701 -209.9689752 172.59205701 -197.97021484 191.06640625 C-197.30095053 187.90027124 -196.63452072 184.73358371 -195.97021484 181.56640625 C-195.64126221 180.00079956 -195.64126221 180.00079956 -195.30566406 178.40356445 C-193.8548844 171.4499805 -192.45872022 164.48826646 -191.10302734 157.515625 C-170.92190029 53.96369534 -170.92190029 53.96369534 -132.14990234 27.11328125 C-93.57021264 2.27819844 -44.47265431 0.99429245 0 0 Z " fill="#0B9AA7" transform="translate(523.97021484375,-0.06640625)"/>
<path d="M0 0 C0.66 0.33 1.32 0.66 2 1 C-4.27 7.27 -10.54 13.54 -17 20 C-17.66 19.67 -18.32 19.34 -19 19 C-12.98348207 12.26459665 -7.02537494 5.71692402 0 0 Z " fill="#5EBCC5" transform="translate(389,29)"/>
<path d="M0 0 C0.66 0.33 1.32 0.66 2 1 C-3.61 6.61 -9.22 12.22 -15 18 C-15.66 17.67 -16.32 17.34 -17 17 C-15.10858512 14.91250542 -13.21212032 12.8300063 -11.3125 10.75 C-10.78205078 10.16347656 -10.25160156 9.57695313 -9.70507812 8.97265625 C-6.66812306 5.6562268 -3.61365652 2.70856629 0 0 Z " fill="#6DC2CA" transform="translate(539,28)"/>
<path d="M0 0 C0.66 0.33 1.32 0.66 2 1 C-3.28 6.28 -8.56 11.56 -14 17 C-14 12.95607032 -12.51908749 11.99868382 -9.8125 9.0625 C-9.03519531 8.20785156 -8.25789063 7.35320313 -7.45703125 6.47265625 C-5.09786332 4.09848566 -2.65532732 2.0327639 0 0 Z " fill="#6BC2CA" transform="translate(88,14)"/>
</svg>
